Motion_sv02_j
version=1
nRows=6
nColumns=43
inDegrees=yes
endheader
time	pelvis_tilt	pelvis_list	pelvis_rotation	pelvis_tx	pelvis_ty	pelvis_tz	hip_flexion_r	hip_adduction_r	hip_rotation_r	knee_angle_r	ankle_angle_r	subtalar_angle_r	mtp_angle_r	hip_flexion_l	hip_adduction_l	hip_rotation_l	knee_angle_l	ankle_angle_l	subtalar_angle_l	mtp_angle_l	lumbar_extension	lumbar_bending	lumbar_rotation	neck_flexion	neck_lateral_bending	neck_rotation	arm_flex_r	arm_add_r	arm_rot_r	elbow_flex_r	pro_sup_r	wrist_flex_r	wrist_dev_r	hand_finger_flex_r	arm_flex_l	arm_add_l	arm_rot_l	elbow_flex_l	pro_sup_l	wrist_flex_l	wrist_dev_l	hand_finger_flex_l
      0.32500000	     -1.32917128	      4.87670695	    -78.55674065	     -0.08184006	      0.85945633	      0.17995565	     38.60661723	      0.17474377	     -4.15518177	    -54.70198561	     20.50734466	    -15.04082388	     -7.10706813	     18.64722441	     -6.33808765	      3.67976786	    -98.99240655	     -5.76287667	    -24.57939963	      4.39648039	    -31.24722097	     24.85014018	      9.43189211	     35.18081109	    -11.63231142	      9.18798935	     55.99947635	    -36.24874602	     12.60477119	     99.51900021	    168.86560949	    -13.81476042	     -3.14249051	    -44.05183518	     55.50988426	    -24.02648878	     15.01216820	    115.68954434	    131.31097765	    -46.48517323	    -12.72034619	      9.99509946
      0.32750000	     -1.39974209	      4.73424539	    -78.22544843	     -0.08206590	      0.86058730	      0.18279520	     38.16082949	      0.07349893	     -4.63704873	    -54.58127604	     20.58806715	    -14.81148964	     -6.87933375	     19.94857687	     -6.27018135	      4.24523244	   -100.23224895	     -5.20575653	    -24.73357174	      4.52974819	    -31.43089707	     25.09690868	      9.63132067	     35.43785227	    -11.75861284	      9.03373971	     57.58363315	    -36.61828201	     13.38210435	     98.85506651	    168.62911269	    -12.94325337	     -2.42373480	    -44.41706467	     56.39090617	    -24.39207246	     15.19240138	    115.69810737	    130.92763310	    -46.69463649	    -12.51148679	      9.74728858
      0.33000000	     -1.39405962	      4.64884662	    -77.97946471	     -0.08254152	      0.86151081	      0.18565311	     37.82279202	     -0.02575369	     -4.97088101	    -54.55834085	     20.70249504	    -14.67370219	     -6.50800278	     21.29568714	     -6.16683511	      4.70012035	   -101.44908337	     -4.67675341	    -24.65670911	      4.95683317	    -31.58041976	     25.20348018	      9.87155681	     35.72381446	    -11.91666220	      9.03561902	     59.05914486	    -36.98437237	     14.07058806	     98.22593765	    168.46750803	    -12.03749934	     -1.83452414	    -45.28793464	     57.34629842	    -24.86395089	     15.33745696	    115.65951238	    130.63735681	    -46.75993723	    -12.52739597	      9.54392524
      0.33250000	     -1.21589763	      4.51354929	    -77.95730615	     -0.08319754	      0.86264633	      0.18858787	     37.45416512	     -0.14335230	     -5.04637561	    -54.58738410	     20.72618883	    -14.58997560	     -6.41813461	     22.46225416	     -5.97535731	      4.83132118	   -102.50811001	     -4.31342711	    -24.77193937	      5.14445560	    -31.87147921	     24.99393000	     10.30506377	     35.99879288	    -11.83452006	      8.83387933	     60.33890555	    -37.41273008	     14.36049476	     97.55705251	    168.52428373	    -11.51112987	     -1.92902886	    -45.35551659	     58.41603314	    -25.17811929	     15.51752963	    115.56392425	    130.62569284	    -46.60930531	    -12.58605306	      9.54781266
      0.33500000	     -1.08691030	      4.46867472	    -77.73205256	     -0.08360553	      0.86359306	      0.19137024	     37.15492557	     -0.38761209	     -5.35572931	    -54.58755552	     20.77029377	    -14.34501473	     -6.13766256	     23.85322333	     -5.79484370	      5.13763581	   -103.61460158	     -3.84946270	    -24.41027981	      5.78061724	    -31.94959542	     24.95284986	     10.47124221	     36.15098037	    -11.90655949	      8.57087728	     61.82626914	    -37.75044992	     15.09550287	     96.76365854	    168.16547835	    -10.55878693	     -1.36453836	    -45.81898435	     59.42113334	    -25.63190591	     15.79334293	    115.49189005	    130.09563906	    -46.83910620	    -12.40232033	      9.39279675
      0.33750000	     -0.89418605	      4.34456877	    -77.65878449	     -0.08434571	      0.86463370	      0.19426562	     36.83170199	     -0.52838315	     -5.43793384	    -54.70278607	     20.84017076	    -14.26975838	     -6.00045628	     25.10636676	     -5.63221632	      5.26200557	   -104.64213521	     -3.54132785	    -24.33521917	      6.12557721	    -32.20681246	     24.74605242	     10.84449074	     36.39840160	    -11.93607420	      8.42301743	     63.07241927	    -38.16566202	     15.44475450	     96.08477025	    168.15667487	    -10.03400157	     -1.33676761	    -45.98973005	     60.58732366	    -26.10488345	     16.00401931	    115.33327439	    130.03939681	    -46.72073032	    -12.50526100	      9.40863886
